<?xml version="1.0" encoding="UTF-8" standalone="no"?>
<svg
   version="1.0"
   width="1024pt"
   height="512pt"
   viewBox="0 0 1024 512"
   preserveAspectRatio="xMidYMid"
   id="svg16"
   sodipodi:docname="cluster.svg"
   inkscape:version="1.4 (e7c3feb100, 2024-10-09)"
   xmlns:inkscape="http://www.inkscape.org/namespaces/inkscape"
   xmlns:sodipodi="http://sodipodi.sourceforge.net/DTD/sodipodi-0.dtd"
   xmlns:xlink="http://www.w3.org/1999/xlink"
   xmlns="http://www.w3.org/2000/svg"
   xmlns:svg="http://www.w3.org/2000/svg">
  <defs
     id="defs16">
    <linearGradient
       id="linearGradient16"
       inkscape:collect="always">
      <stop
         style="stop-color:#ff82f5;stop-opacity:1;"
         offset="0"
         id="stop16" />
      <stop
         style="stop-color:#ffaff3;stop-opacity:1;"
         offset="1"
         id="stop17" />
    </linearGradient>
    <linearGradient
       inkscape:collect="always"
       xlink:href="#linearGradient16"
       id="linearGradient17"
       x1="1494.5"
       y1="6830.5"
       x2="1494.5"
       y2="4259.5"
       gradientUnits="userSpaceOnUse" />
    <linearGradient
       inkscape:collect="always"
       xlink:href="#linearGradient16"
       id="linearGradient19"
       x1="2947.9023"
       y1="6160.7603"
       x2="2947.9023"
       y2="4596.5649"
       gradientUnits="userSpaceOnUse" />
    <linearGradient
       inkscape:collect="always"
       xlink:href="#linearGradient16"
       id="linearGradient21"
       x1="4032.8672"
       y1="5618.5728"
       x2="4032.8672"
       y2="4284.8882"
       gradientUnits="userSpaceOnUse" />
    <linearGradient
       inkscape:collect="always"
       xlink:href="#linearGradient16"
       id="linearGradient23"
       x1="5109.9521"
       y1="5996.5142"
       x2="5109.9521"
       y2="4463.0337"
       gradientUnits="userSpaceOnUse" />
    <linearGradient
       inkscape:collect="always"
       xlink:href="#linearGradient16"
       id="linearGradient25"
       x1="6421.9771"
       y1="6076.1611"
       x2="6421.9771"
       y2="4642.207"
       gradientUnits="userSpaceOnUse" />
    <linearGradient
       inkscape:collect="always"
       xlink:href="#linearGradient16"
       id="linearGradient27"
       x1="7351.8647"
       y1="5973.4619"
       x2="7351.8647"
       y2="4681.2383"
       gradientUnits="userSpaceOnUse" />
    <linearGradient
       inkscape:collect="always"
       xlink:href="#linearGradient16"
       id="linearGradient29"
       x1="8792.9492"
       y1="6668.8711"
       x2="8792.9492"
       y2="4270.3184"
       gradientUnits="userSpaceOnUse" />
  </defs>
  <sodipodi:namedview
     id="namedview16"
     pagecolor="#505050"
     bordercolor="#ffffff"
     borderopacity="1"
     inkscape:showpageshadow="0"
     inkscape:pageopacity="0"
     inkscape:pagecheckerboard="1"
     inkscape:deskcolor="#505050"
     inkscape:document-units="pt"
     inkscape:zoom="0.5"
     inkscape:cx="527"
     inkscape:cy="742"
     inkscape:window-width="1290"
     inkscape:window-height="1371"
     inkscape:window-x="26"
     inkscape:window-y="23"
     inkscape:window-maximized="0"
     inkscape:current-layer="g16" />
  <metadata
     id="metadata1">
Created by potrace 1.16, written by Peter Selinger 2001-2019
</metadata>
  <g
     transform="matrix(0.1,0,0,-0.1,0,1024)"
     fill="#000000"
     stroke="none"
     id="g16">
    <g
       id="g31"
       transform="translate(0,2168.8376)">
      <path
         d="m 1625,7973 c 2,-18 -2,-51 -10,-74 -23,-63 -18,-103 16,-165 l 31,-55 -27,-76 c -26,-70 -27,-81 -17,-127 19,-81 56,-210 65,-224 5,-7 34,-26 65,-42 82,-42 170,-115 179,-147 4,-18 -3,-66 -20,-133 -15,-58 -27,-120 -27,-137 0,-18 -4,-33 -10,-33 -15,0 -170,82 -170,90 0,7 -31,50 -73,102 -18,22 -18,22 -1,-7 10,-16 29,-49 42,-73 17,-31 42,-53 92,-83 98,-58 155,-122 169,-190 15,-69 30,-90 88,-130 68,-46 73,-54 73,-133 0,-56 -5,-82 -25,-120 -14,-27 -25,-66 -25,-87 0,-74 -30,-54 -78,52 -26,58 -35,69 -85,97 -54,31 -64,44 -80,117 -3,15 -5,12 -6,-8 -2,-50 24,-93 73,-122 48,-28 64,-50 86,-120 7,-22 27,-62 45,-90 17,-27 39,-71 48,-97 8,-26 28,-63 42,-82 l 27,-35 -22,-36 c -12,-19 -23,-35 -25,-35 -9,0 -101,52 -120,68 -12,9 6,-8 39,-39 60,-56 60,-57 46,-84 -8,-15 -52,-63 -98,-105 l -82,-77 -45,20 c -34,16 -46,27 -51,51 -3,17 -17,53 -31,79 -19,37 -24,62 -22,108 1,32 -1,62 -5,67 -4,4 -7,0 -5,-8 1,-8 -1,-36 -5,-61 -6,-37 -4,-56 13,-94 24,-55 27,-95 7,-95 -7,0 -48,16 -89,35 -82,38 -89,46 -127,149 -12,31 -37,78 -56,106 -39,57 -43,93 -18,167 13,39 15,68 9,153 -4,58 -6,168 -5,245 1,97 -3,154 -13,185 l -14,45 5,-76 c 5,-86 -12,-177 -36,-186 -8,-4 -22,-1 -31,6 -47,34 -80,53 -121,68 -25,9 -57,28 -73,42 -26,24 -57,102 -57,145 0,12 -12,44 -27,71 -22,41 -27,62 -26,114 1,36 -2,72 -7,80 -7,11 -8,7 -4,-14 3,-18 0,-38 -9,-49 -18,-25 -42,-12 -96,53 -34,41 -53,53 -106,71 -35,12 -83,37 -107,56 -24,18 -50,34 -58,34 -10,-1 -9,-4 5,-12 11,-6 36,-25 55,-43 19,-17 61,-42 93,-55 46,-18 66,-34 101,-79 24,-31 54,-65 66,-76 36,-32 67,-105 73,-172 4,-35 5,-63 2,-63 -2,0 -33,14 -67,32 -53,27 -74,32 -134,32 -40,1 -67,-2 -61,-6 7,-4 35,-8 62,-8 82,-1 192,-63 247,-142 26,-35 91,-78 120,-78 7,0 38,-20 69,-44 62,-49 89,-103 89,-182 0,-32 -28,-122 -45,-142 -1,-1 -23,10 -49,24 -26,15 -64,30 -85,35 -21,5 -80,35 -132,67 -74,47 -98,68 -117,103 -13,24 -21,36 -18,26 3,-10 6,-22 6,-27 0,-31 148,-147 280,-220 68,-37 81,-54 115,-153 9,-26 34,-73 55,-105 49,-74 78,-161 59,-173 -22,-14 -69,-10 -147,11 -39,11 -83,20 -96,20 -17,0 -42,20 -85,67 -34,37 -74,74 -89,83 -21,13 -32,32 -45,78 -29,105 -58,173 -89,208 -42,47 -77,45 -184,-11 -73,-39 -93,-45 -144,-45 -102,0 -152,26 -253,132 l -88,93 83,-100 c 46,-55 92,-108 103,-117 53,-44 205,-52 275,-14 134,73 128,70 155,58 28,-13 60,-60 75,-112 14,-48 24,-130 16,-130 -4,0 -32,8 -64,19 -49,16 -220,36 -208,24 2,-3 39,-9 81,-14 102,-13 175,-42 234,-92 52,-46 131,-133 131,-147 0,-4 -44,-33 -97,-64 -90,-51 -104,-56 -173,-60 -50,-3 -92,1 -125,11 -51,15 -262,26 -269,14 -3,-4 37,-6 87,-6 76,1 101,-3 144,-22 28,-13 61,-23 72,-23 25,0 26,-4 4,-42 -20,-32 -58,-59 -113,-78 -19,-6 -51,-30 -70,-53 l -34,-42 40,37 c 25,24 60,44 94,54 38,11 65,28 90,54 42,47 82,63 130,55 30,-5 50,2 125,41 79,42 97,47 171,52 65,4 101,0 171,-18 66,-17 103,-21 147,-16 46,5 68,2 105,-15 97,-42 145,-114 161,-236 6,-43 12,-90 15,-105 5,-33 -7,-36 -34,-9 -11,11 -37,23 -58,27 -72,13 -107,33 -135,77 -15,23 -28,38 -28,32 1,-5 13,-28 28,-50 28,-40 73,-69 125,-80 16,-3 44,-22 62,-42 l 32,-35 2,-138 c 2,-132 1,-139 -22,-165 -22,-26 -26,-27 -59,-16 -20,7 -54,24 -75,40 -21,15 -66,37 -100,50 -74,27 -79,33 -116,120 -27,65 -30,55 -6,-26 7,-23 10,-45 6,-49 -3,-3 -27,-3 -52,1 -41,6 -50,12 -78,53 -51,76 -116,133 -184,164 -40,18 -67,37 -73,51 -5,12 -9,17 -9,10 -2,-28 15,-46 65,-68 65,-29 138,-100 182,-177 17,-32 32,-60 32,-63 0,-11 -87,-42 -153,-55 -84,-15 -118,-9 -186,36 -50,33 -59,36 -104,30 -28,-3 -55,-10 -59,-14 -5,-5 13,-5 41,1 51,10 52,9 119,-36 37,-25 79,-48 93,-52 13,-3 69,4 124,15 180,38 243,42 300,20 85,-32 129,-57 164,-94 19,-20 40,-36 46,-36 20,0 45,-35 45,-62 0,-13 -11,-35 -25,-48 -21,-20 -28,-22 -50,-12 -39,18 -40,15 -6,-14 20,-16 39,-24 51,-21 12,3 18,1 14,-5 -4,-6 7,-8 27,-6 32,3 36,0 31,-31 -1,-5 -19,-11 -41,-15 -21,-3 -69,-19 -107,-35 -119,-50 -143,-54 -214,-31 -82,26 -88,19 -10,-10 77,-29 141,-24 237,18 95,43 156,43 227,3 56,-32 136,-98 136,-111 0,-4 -24,-11 -52,-15 -84,-12 -133,-40 -167,-96 -41,-66 -89,-89 -210,-100 -53,-4 -118,-13 -146,-19 -105,-22 -121,-22 -199,0 l -79,22 -96,-21 c -120,-27 -174,-41 -169,-46 2,-2 21,0 43,5 183,41 204,43 247,30 24,-7 64,-23 90,-36 53,-27 53,-27 7,-105 -14,-25 -34,-62 -44,-83 -10,-21 -35,-49 -57,-63 -42,-28 -155,-63 -203,-63 -53,0 -96,-30 -114,-80 -14,-39 -23,-48 -68,-70 -29,-14 -60,-36 -69,-50 l -17,-25 29,26 c 16,15 41,29 55,32 40,10 77,44 98,92 21,47 17,45 136,60 27,4 78,17 112,30 35,12 63,18 63,13 0,-5 -13,-35 -30,-68 -35,-69 -89,-125 -137,-141 -19,-6 -32,-13 -30,-16 7,-7 88,32 112,54 39,34 77,92 109,165 38,87 88,167 143,227 45,50 79,59 224,60 71,1 94,5 135,26 27,14 53,25 58,25 4,0 5,-19 2,-42 -4,-24 -10,-90 -14,-148 -6,-89 -11,-112 -34,-150 -46,-74 -52,-80 -121,-94 -36,-8 -71,-18 -80,-22 -26,-15 -139,-124 -128,-124 5,0 27,16 48,37 65,62 102,83 148,83 h 42 l -8,-45 c -5,-24 -18,-64 -29,-87 -21,-42 -21,-43 -1,-18 11,14 30,53 41,87 12,34 32,70 44,80 30,24 80,99 95,143 6,19 11,62 12,95 1,68 44,259 65,292 16,26 98,53 158,53 45,0 113,-28 135,-54 21,-25 14,-120 -13,-188 -13,-32 -20,-56 -17,-53 11,6 48,97 57,140 5,22 16,41 24,43 20,3 40,-34 89,-164 l 30,-80 -20,-74 c -10,-40 -19,-95 -19,-122 0,-40 -9,-63 -47,-130 -45,-77 -48,-87 -54,-174 -5,-81 -10,-99 -42,-157 -26,-46 -37,-76 -36,-104 l 2,-38 6,45 c 4,25 21,65 38,90 38,56 42,71 52,168 7,72 12,85 58,153 28,41 54,84 57,96 7,23 8,22 66,-17 32,-22 67,-54 77,-70 10,-17 41,-44 70,-60 35,-20 60,-44 77,-73 23,-39 25,-51 20,-104 -6,-54 -4,-64 25,-114 38,-67 40,-58 4,16 -25,51 -26,58 -15,100 10,38 10,52 -3,81 -23,56 -52,90 -90,108 -22,11 -48,37 -69,70 -19,29 -52,66 -75,82 -61,44 -68,70 -42,158 16,53 19,80 12,97 -22,59 -44,210 -35,237 11,33 43,40 77,17 14,-9 29,-15 33,-13 5,1 22,-10 38,-25 21,-20 39,-27 65,-26 33,1 34,1 11,8 -44,14 -70,35 -80,67 -6,17 -19,39 -30,49 -18,16 -18,20 -5,52 8,18 30,53 49,76 86,106 182,251 205,311 32,84 33,93 7,46 -30,-57 -82,-110 -166,-174 -63,-47 -66,-48 -120,-43 -41,5 -92,24 -197,77 l -143,71 v 333 c 0,428 9,636 26,643 8,3 71,-22 141,-55 71,-32 149,-65 176,-72 46,-12 47,-13 47,-54 0,-23 11,-65 25,-95 18,-38 24,-64 20,-85 -5,-28 -5,-29 7,-11 6,11 11,45 10,75 -2,49 4,68 61,185 35,72 90,172 121,224 51,83 96,178 96,199 0,4 -13,-14 -28,-39 -15,-26 -48,-70 -74,-99 l -48,-52 -1,33 -2,34 -6,-35 c -5,-31 -10,-35 -40,-38 -56,-6 -81,6 -96,43 -13,29 -13,38 1,71 12,28 13,45 6,73 l -10,36 1,-40 c 0,-22 -5,-50 -11,-62 -7,-12 -12,-40 -12,-62 0,-35 -3,-41 -22,-41 -29,0 -101,35 -124,61 -10,11 -26,49 -35,85 -17,65 -15,96 9,140 6,12 7,40 2,74 l -8,55 -1,-48 c 0,-26 -10,-65 -21,-87 -11,-22 -20,-59 -20,-85 0,-26 -5,-45 -11,-45 -28,0 -89,46 -109,82 -31,55 -25,145 12,204 33,52 47,125 35,184 -7,36 -5,56 13,107 27,76 22,113 -22,174 -32,44 -37,71 -25,124 6,27 6,26 -7,-5 -22,-52 -19,-72 15,-124 26,-39 31,-54 27,-90 -3,-23 -13,-54 -23,-69 l -17,-27 -58,50 c -31,28 -64,67 -73,88 -9,20 -29,68 -45,106 -29,68 -29,69 -15,130 26,110 32,163 24,222 -8,55 -12,61 -70,113 -34,31 -61,60 -61,65 0,5 -11,23 -24,41 -14,17 -26,49 -29,71 l -4,39 -1,-38 c -1,-26 7,-53 24,-83 29,-49 22,-54 -36,-24 -47,24 -58,44 -95,178 l -29,103 22,68 c 28,86 28,88 -8,156 -32,60 -36,97 -20,157 8,26 8,48 0,70 l -10,33 z"
         id="path1"
         style="fill:url(#linearGradient17)" />
      <path
         d="m 9162,7801 c -34,-75 -36,-99 -26,-232 l 6,-86 -73,-144 c -64,-127 -73,-151 -73,-199 0,-43 7,-67 32,-110 31,-54 31,-58 34,-205 l 4,-149 -48,-55 c -27,-30 -61,-62 -76,-71 -15,-9 -43,-36 -62,-58 -19,-23 -40,-42 -46,-42 -16,0 -37,114 -30,164 5,35 5,38 -5,16 -6,-14 -10,-62 -10,-107 l 1,-82 -53,-60 c -30,-33 -62,-82 -72,-108 -33,-87 -77,-167 -116,-210 -22,-24 -39,-47 -39,-52 0,-5 -23,-28 -51,-52 -57,-47 -69,-43 -69,22 0,20 -12,58 -26,85 -25,46 -26,57 -25,165 2,132 -4,156 -61,217 -39,42 -40,46 -35,94 4,30 21,76 43,115 35,63 36,68 30,134 -8,72 3,109 47,156 11,13 18,26 15,29 -4,3 -25,-22 -48,-56 -33,-48 -42,-70 -40,-98 7,-108 5,-121 -22,-149 -33,-35 -62,-132 -53,-179 3,-19 19,-49 34,-67 55,-63 61,-94 40,-214 -10,-59 -9,-70 15,-138 14,-40 26,-94 26,-120 0,-43 -4,-50 -53,-98 -30,-29 -62,-64 -71,-79 -29,-45 -39,-24 -31,67 6,77 5,84 -17,107 -13,13 -17,16 -9,6 10,-13 12,-37 8,-94 -6,-75 -25,-124 -50,-124 -17,0 -83,133 -96,192 -8,32 -6,59 4,103 8,33 14,77 15,98 0,37 -29,109 -50,122 -5,3 -16,27 -24,53 -22,70 -47,131 -43,102 11,-60 41,-159 63,-202 31,-60 30,-104 -1,-172 -24,-53 -103,-143 -175,-199 l -34,-27 -13,24 c -7,14 -20,49 -28,78 l -15,53 5,-63 c 2,-34 8,-74 11,-87 5,-21 1,-27 -22,-38 -38,-16 -116,-69 -110,-74 2,-3 18,3 35,11 42,22 58,20 116,-13 75,-43 81,-54 94,-166 17,-153 14,-829 -5,-925 -9,-49 -100,-215 -136,-252 -50,-50 -31,-48 28,2 72,63 84,45 43,-66 -21,-57 -84,-132 -149,-177 -24,-17 -24,-17 10,-1 83,39 116,71 152,146 20,40 39,83 43,96 14,47 32,17 59,-98 23,-96 24,-165 4,-260 -9,-47 -17,-97 -18,-111 0,-15 -15,-49 -33,-75 -39,-58 -44,-70 -61,-151 -11,-51 -11,-78 0,-150 13,-89 7,-188 -16,-247 -14,-38 -12,-86 5,-116 8,-14 15,-38 16,-55 1,-25 2,-26 6,-7 3,13 -3,45 -13,72 -17,47 -17,50 4,106 29,79 44,181 36,249 -7,60 9,160 34,210 8,17 29,48 46,71 22,29 37,66 50,125 11,46 21,86 23,88 1,3 14,-6 27,-18 13,-12 54,-32 92,-44 l 69,-22 13,-64 c 7,-39 35,-109 69,-175 46,-91 58,-125 69,-200 10,-69 19,-95 36,-111 l 22,-20 -18,22 c -11,14 -22,56 -31,120 -11,79 -22,117 -58,194 -49,104 -64,158 -50,184 8,14 17,9 64,-35 58,-55 86,-65 194,-75 50,-5 84,-2 120,9 62,20 93,20 137,2 19,-8 58,-18 88,-22 88,-12 145,-78 185,-219 22,-74 95,-151 153,-160 20,-4 52,-11 70,-17 18,-5 35,-8 38,-5 3,2 -25,13 -63,23 -99,27 -157,87 -178,184 -10,49 -49,123 -87,165 -38,44 -36,45 71,70 97,22 155,11 220,-40 24,-19 51,-35 60,-34 14,0 14,1 1,6 -8,3 -30,19 -48,34 -76,67 -128,76 -258,49 -125,-26 -140,-25 -220,6 -65,27 -67,27 -152,14 -105,-17 -204,-15 -241,4 -14,8 -48,38 -76,66 -55,56 -99,83 -166,100 -24,6 -51,17 -60,23 -24,18 -69,101 -69,126 0,28 121,156 178,188 l 38,21 46,-28 c 26,-16 54,-44 63,-62 35,-73 47,-80 270,-147 55,-16 110,-33 122,-36 12,-3 32,-19 43,-36 22,-30 107,-86 116,-76 3,3 -5,8 -17,12 -13,4 -48,31 -79,60 -30,29 -80,65 -110,80 l -55,28 65,24 c 37,14 76,22 90,19 14,-3 48,-10 75,-17 57,-14 133,-6 161,17 18,14 18,15 -2,5 -46,-22 -117,-23 -183,-2 -69,23 -94,21 -173,-10 -69,-27 -130,-21 -204,21 -38,22 -61,44 -74,70 -34,67 -25,72 77,45 87,-23 130,-20 172,12 19,16 45,31 56,35 18,5 18,6 1,7 -10,1 -31,-10 -48,-24 -44,-37 -73,-41 -147,-17 -36,11 -84,24 -106,28 -82,14 -164,64 -106,64 25,0 105,36 120,54 10,12 6,12 -26,1 -75,-25 -106,-26 -140,-5 -49,30 -43,54 20,84 30,14 59,32 66,39 6,8 15,48 20,89 5,41 13,84 20,96 16,31 13,40 -5,14 -8,-13 -20,-53 -25,-89 -10,-70 -30,-113 -53,-113 -7,0 -35,-9 -61,-21 -35,-16 -50,-18 -59,-9 -7,7 -13,100 -18,278 -4,147 -11,307 -15,355 -5,48 -5,93 -1,100 4,7 8,56 8,110 0,67 5,107 15,127 13,26 132,127 139,119 22,-32 120,-187 135,-215 18,-33 20,-49 14,-125 -6,-86 -5,-87 27,-138 27,-41 42,-53 73,-62 50,-13 60,-5 13,11 -65,21 -35,56 31,36 50,-14 115,15 154,69 47,66 123,84 186,45 43,-26 59,-54 72,-123 17,-92 59,-133 183,-173 39,-13 78,-30 87,-38 9,-7 30,-20 46,-28 42,-21 170,-17 210,6 25,14 26,15 5,9 -14,-4 -60,-7 -104,-6 -71,2 -84,5 -130,35 -28,19 -78,42 -111,52 -33,10 -79,33 -101,52 -37,30 -43,40 -54,101 -15,79 -28,109 -64,142 -14,13 -23,28 -19,33 3,6 29,21 57,34 60,28 125,31 206,9 30,-8 87,-15 125,-15 83,0 103,11 169,92 51,62 86,79 211,98 38,6 72,13 75,16 9,10 -124,-7 -185,-24 -52,-13 -69,-24 -123,-80 -84,-87 -132,-97 -278,-56 -94,27 -140,23 -229,-20 -44,-21 -96,-40 -115,-43 -72,-9 -84,-15 -142,-73 -68,-68 -93,-74 -165,-39 -32,15 -43,26 -42,42 1,48 27,87 92,142 64,55 121,83 237,117 38,11 71,34 35,25 -77,-21 -105,-19 -150,10 -49,31 -151,156 -140,172 3,6 20,15 38,21 28,9 25,9 -20,5 -45,-5 -53,-3 -67,17 -9,12 -16,26 -16,30 0,16 107,46 154,42 27,-3 52,-6 56,-9 16,-10 158,-35 198,-35 24,0 41,-4 38,-9 -15,-24 194,-61 374,-66 l 85,-3 -91,7 c -49,4 -95,10 -101,14 -6,4 -43,11 -82,17 -40,5 -90,19 -112,30 l -40,21 53,35 c 29,19 78,61 108,94 64,67 103,81 171,59 35,-11 47,-23 66,-59 22,-42 58,-79 76,-80 5,0 -3,13 -18,28 -15,16 -36,46 -48,68 -27,48 -76,74 -139,74 -47,0 -48,1 -48,30 0,44 29,108 59,129 14,10 64,33 111,51 l 85,32 67,-22 67,-22 30,21 c 17,12 38,35 47,50 24,41 151,121 192,121 43,0 99,24 128,55 13,14 19,25 15,25 -5,0 -14,-7 -22,-16 -20,-25 -60,-41 -119,-48 -66,-9 -122,-41 -207,-120 l -63,-59 -36,19 c -20,10 -38,22 -40,26 -3,4 13,24 35,43 38,35 55,69 81,164 8,31 27,58 65,95 51,50 86,102 84,128 0,7 -7,-3 -16,-22 -8,-19 -46,-64 -83,-100 -61,-59 -69,-71 -80,-123 -20,-98 -79,-146 -235,-189 -76,-21 -165,-73 -190,-112 -9,-14 -24,-51 -34,-83 -10,-32 -35,-82 -55,-111 -36,-49 -42,-53 -124,-78 -74,-23 -93,-25 -127,-16 -22,6 -77,16 -122,22 -49,7 -83,17 -83,24 0,6 11,28 25,48 18,27 37,40 68,49 71,19 87,30 34,24 -63,-8 -67,6 -28,90 17,36 31,70 31,75 0,13 208,221 255,255 22,16 58,48 81,71 32,33 50,42 88,47 77,11 132,40 163,88 15,23 46,61 68,82 37,37 37,39 7,18 -18,-12 -40,-34 -50,-48 -42,-64 -77,-91 -134,-103 -31,-7 -68,-10 -82,-6 -25,6 -26,9 -26,76 0,63 4,79 40,148 23,42 50,92 62,110 11,18 19,35 16,37 -2,2 -30,-36 -63,-86 l -60,-89 -5,72 c -4,64 -10,80 -44,128 -35,50 -38,59 -32,103 3,31 29,95 72,180 l 66,132 -6,80 c -3,44 -8,103 -12,131 -5,41 -1,62 21,118 36,90 26,95 -13,7 z"
         id="path2"
         style="fill:url(#linearGradient29)" />
      <path
         d="m 3696,7683 c -4,-32 -2,-74 4,-93 5,-19 10,-48 10,-65 0,-40 -38,-108 -75,-136 -66,-49 -117,-107 -157,-177 l -42,-73 -12,33 c -7,19 -10,61 -7,98 4,44 0,83 -11,119 -21,73 -20,128 4,176 11,22 20,48 19,60 -1,17 -2,16 -8,-5 -5,-14 -15,-39 -23,-55 -22,-44 -30,-115 -17,-155 15,-47 20,-310 8,-440 -16,-169 -35,-242 -76,-290 -36,-42 -104,-82 -160,-94 -30,-7 -32,-6 -54,51 -24,62 -27,105 -14,281 7,85 5,98 -23,180 -28,81 -29,91 -19,155 10,67 10,67 -23,113 -30,42 -32,50 -27,102 l 6,57 -15,-53 c -13,-48 -13,-55 3,-83 10,-17 24,-42 30,-54 10,-17 10,-40 1,-101 -10,-76 -10,-82 16,-141 33,-80 35,-173 5,-259 -19,-54 -20,-66 -9,-145 11,-74 10,-93 -5,-145 -16,-59 -60,-134 -77,-134 -5,0 -8,24 -8,53 0,28 -3,90 -7,137 -7,84 -7,84 -14,35 -4,-27 -3,-70 2,-94 11,-49 4,-81 -16,-81 -8,0 -32,35 -55,78 -50,93 -67,202 -44,278 7,25 11,57 8,73 -4,20 1,35 19,57 37,45 46,67 52,130 l 5,59 -13,-67 c -10,-51 -20,-76 -44,-100 -23,-25 -32,-46 -37,-87 -4,-30 -14,-67 -22,-82 -7,-15 -14,-48 -14,-72 0,-24 -3,-46 -6,-49 -3,-3 -27,8 -53,26 -27,17 -62,38 -78,47 -24,13 -35,30 -51,80 -31,99 -46,175 -38,196 5,10 12,62 17,116 7,85 6,106 -11,160 -11,34 -20,70 -20,80 0,9 -18,37 -40,60 -22,24 -44,54 -49,68 l -10,24 v -25 c -1,-15 13,-38 36,-62 28,-29 41,-54 52,-101 28,-112 13,-317 -23,-317 -7,0 -21,10 -32,21 -10,12 -47,34 -81,50 -64,28 -87,53 -99,104 -9,39 -39,98 -56,112 -7,6 -24,14 -38,18 -21,5 -19,3 8,-14 35,-23 55,-60 68,-126 10,-58 29,-81 92,-112 108,-53 158,-119 169,-223 6,-59 -6,-68 -55,-41 l -37,22 28,-26 c 15,-14 36,-25 45,-25 10,0 26,-14 36,-31 10,-17 51,-52 92,-78 78,-49 131,-115 155,-190 6,-20 24,-53 40,-73 16,-20 29,-48 29,-62 v -25 l -46,20 c -25,11 -52,18 -61,15 -9,-4 -41,1 -73,10 -54,15 -58,19 -83,69 -14,29 -38,62 -52,72 -14,10 -41,29 -58,41 -18,13 -9,2 20,-25 32,-29 60,-68 73,-98 12,-27 33,-59 47,-71 l 26,-20 -33,-14 c -19,-8 -54,-14 -79,-14 -41,-1 -47,2 -72,39 -26,39 -79,75 -109,75 -8,0 3,-9 25,-19 24,-11 53,-36 73,-65 17,-26 39,-49 48,-53 9,-3 51,2 94,11 42,9 84,14 91,12 8,-2 26,-7 42,-10 33,-8 99,-65 126,-109 22,-38 36,-117 21,-117 -6,0 -27,11 -48,24 -20,14 -50,28 -67,31 l -30,7 33,-19 c 18,-10 54,-37 81,-60 l 48,-41 7,-109 c 21,-336 22,-318 -15,-290 -10,7 -18,35 -22,71 -3,32 -11,64 -16,69 -7,7 -8,2 -2,-19 4,-16 6,-46 3,-67 -3,-29 1,-46 16,-67 40,-54 44,-99 39,-472 -5,-380 -18,-514 -56,-566 -11,-15 -31,-54 -45,-87 -24,-52 -50,-87 -155,-203 -16,-17 -25,-32 -20,-32 5,0 33,25 61,55 93,100 157,122 182,63 19,-44 10,-87 -27,-125 -38,-41 -23,-44 19,-4 18,17 36,48 44,75 10,38 17,46 36,46 27,0 34,-12 65,-99 28,-84 25,-92 -87,-206 -34,-35 -77,-68 -95,-74 -29,-9 -39,-22 -69,-88 -45,-99 -48,-109 -13,-51 36,61 47,61 26,1 -15,-43 -32,-245 -20,-233 3,3 7,41 10,86 3,45 9,90 15,100 5,10 15,43 22,72 9,40 20,59 45,77 17,14 36,25 42,25 5,0 28,16 50,35 23,19 45,35 51,35 15,0 27,-98 24,-214 -2,-95 0,-112 16,-130 61,-68 102,-157 117,-254 6,-36 3,-47 -13,-65 -39,-41 -49,-82 -39,-149 7,-52 6,-69 -12,-115 -12,-30 -21,-67 -20,-81 1,-22 3,-20 10,11 5,21 20,57 33,80 22,37 24,49 17,99 -8,64 2,100 44,150 30,36 30,38 4,149 -14,60 -32,106 -58,146 -48,74 -51,88 -40,170 5,44 4,91 -3,131 -9,56 -8,74 13,150 12,48 37,117 55,154 28,61 33,66 49,54 10,-7 19,-27 21,-45 5,-38 25,-84 60,-131 16,-23 23,-42 20,-57 -4,-13 -8,-33 -11,-45 -4,-14 1,-31 10,-43 16,-20 16,-20 6,2 -8,15 -8,30 -1,48 15,39 12,71 -10,115 -22,42 -27,129 -10,146 6,6 12,29 13,50 2,31 8,42 29,52 43,20 124,-2 171,-47 l 39,-36 -33,49 c -26,39 -45,55 -98,79 -76,35 -160,102 -191,152 -21,34 -22,47 -23,313 -2,304 5,358 59,421 27,32 101,64 174,75 39,6 129,44 107,46 -5,0 -18,-5 -29,-11 -12,-6 -51,-13 -88,-14 -92,-4 -144,-20 -185,-57 -20,-17 -39,-27 -43,-24 -4,4 -9,107 -12,229 -7,267 -1,293 83,370 l 52,49 -43,-24 c -23,-12 -58,-37 -77,-54 l -35,-32 v 60 c 0,51 6,72 41,139 55,106 79,122 183,125 97,2 121,11 174,61 22,21 50,46 63,56 23,17 23,17 -11,1 -19,-9 -52,-32 -72,-52 -34,-32 -45,-36 -104,-40 -71,-5 -96,6 -75,32 11,13 33,76 27,76 -1,0 -17,-22 -34,-49 -21,-32 -41,-51 -60,-56 -15,-3 -44,-17 -65,-31 -32,-21 -38,-22 -43,-9 -9,22 15,171 38,231 22,62 38,77 116,114 63,30 86,54 98,105 18,77 42,113 97,148 57,37 78,71 92,154 4,24 21,61 41,87 41,54 45,69 5,24 -35,-40 -54,-78 -71,-140 -13,-49 -32,-71 -93,-107 -33,-21 -38,-21 -43,-6 -4,9 -4,67 -1,128 6,111 6,113 59,216 43,85 65,115 120,165 82,75 118,135 118,197 0,25 -5,50 -12,57 -6,6 -10,40 -10,82 1,38 0,70 -2,70 -2,0 -7,-26 -10,-57 z"
         id="path3"
         style="fill:url(#linearGradient19)" />
      <path
         d="m 5981,7623 c 0,-12 4,-45 10,-72 8,-41 19,-58 54,-88 24,-21 67,-69 94,-108 46,-63 51,-75 51,-124 0,-48 -2,-52 -16,-40 -9,7 -20,24 -25,37 -5,14 -12,22 -15,19 -3,-2 2,-22 11,-43 15,-34 54,-142 72,-196 3,-10 -5,-49 -17,-87 -29,-87 -23,-108 44,-174 37,-36 57,-65 64,-92 29,-108 6,-305 -45,-393 -35,-60 -44,-54 -89,56 -10,25 -33,55 -53,70 -20,15 -41,34 -48,42 -7,8 -13,12 -13,7 0,-4 19,-28 43,-54 34,-37 46,-61 63,-124 11,-44 19,-81 16,-84 -3,-2 -16,4 -29,15 -13,10 -50,24 -81,31 -107,22 -116,33 -126,158 -4,40 -10,79 -14,86 -4,7 -29,30 -56,52 -38,30 -55,53 -75,101 -20,48 -34,68 -61,84 l -35,20 28,-22 c 32,-26 51,-61 61,-110 4,-24 24,-53 64,-93 l 57,-57 v -89 c 0,-116 14,-137 110,-168 38,-13 80,-33 93,-45 31,-30 62,-90 62,-123 0,-29 -36,-105 -49,-105 -5,0 -12,18 -16,40 -4,22 -16,50 -27,62 l -20,23 16,-25 c 10,-14 16,-46 16,-78 0,-49 -3,-55 -42,-93 -40,-37 -150,-109 -167,-109 -29,0 -95,-134 -94,-191 1,-21 6,-45 12,-55 8,-15 9,-11 4,19 -4,30 0,45 21,77 41,62 78,80 162,80 h 72 l 6,-72 c 10,-128 19,-752 11,-842 -5,-63 -12,-93 -24,-104 -24,-23 -58,-52 -103,-85 -20,-16 -56,-47 -80,-70 -24,-23 -56,-52 -73,-64 -16,-13 5,-4 47,18 43,22 82,38 88,34 17,-11 11,-71 -10,-98 -20,-25 -55,-152 -40,-142 5,3 11,23 15,44 3,22 16,47 27,58 11,10 29,36 40,58 41,82 64,95 137,75 20,-5 48,-12 63,-15 15,-3 43,-20 62,-39 62,-57 47,-115 -56,-223 -62,-65 -111,-157 -110,-205 0,-15 15,-48 33,-73 41,-57 37,-66 -61,-148 -46,-38 -86,-82 -103,-112 -26,-47 -27,-55 -22,-130 6,-72 4,-85 -18,-128 -14,-26 -19,-43 -12,-37 29,24 45,79 45,157 0,72 3,84 33,131 19,30 57,70 93,96 113,82 124,114 66,199 -29,42 -29,43 -15,92 19,63 43,98 109,158 40,36 59,62 75,108 25,67 36,66 69,-5 44,-97 53,-205 50,-598 -2,-164 1,-175 63,-230 l 42,-36 5,-149 c 4,-114 9,-155 22,-178 22,-38 23,-29 3,20 -13,29 -15,60 -9,159 8,138 -2,175 -56,214 -40,30 -54,87 -44,177 4,38 9,131 10,205 3,181 3,179 27,149 10,-13 55,-42 100,-64 81,-40 82,-41 118,-112 19,-40 56,-94 81,-121 46,-49 78,-123 78,-181 0,-14 4,-32 9,-40 13,-20 2,73 -15,138 -11,37 -29,68 -60,101 -27,28 -54,73 -69,110 -31,80 -46,96 -123,132 -84,40 -111,82 -118,181 -3,40 -6,86 -9,103 -3,30 -2,31 38,32 48,2 64,12 19,12 -54,0 -83,51 -32,58 12,2 32,13 44,24 11,10 33,22 49,25 15,3 27,11 27,18 0,6 13,38 29,71 40,79 51,132 50,239 -1,81 -2,85 -9,39 -10,-69 -48,-143 -85,-166 -16,-10 -50,-26 -74,-35 l -44,-17 -65,35 c -94,50 -104,76 -96,251 4,73 6,207 5,298 -2,168 20,474 35,489 3,4 70,6 148,7 79,0 148,4 154,8 7,4 47,52 89,108 73,95 79,105 94,182 9,44 20,90 24,100 6,13 5,17 -3,13 -6,-4 -20,-36 -32,-71 -13,-39 -34,-77 -54,-98 -41,-42 -72,-48 -268,-48 -158,0 -165,4 -124,66 80,124 86,129 215,161 81,20 126,59 162,138 19,41 44,74 78,103 28,24 56,53 61,65 10,20 9,19 -12,-3 -13,-14 -45,-43 -71,-64 -26,-21 -58,-59 -71,-84 -41,-80 -80,-109 -185,-137 -51,-14 -94,-25 -97,-25 -13,0 0,26 26,50 24,23 26,27 10,23 -22,-6 -60,-48 -60,-67 0,-17 -67,-92 -75,-84 -12,12 -18,94 -10,143 6,40 17,58 81,126 41,44 74,85 74,91 0,6 21,32 48,56 42,41 44,43 13,26 -18,-10 -50,-39 -70,-62 -43,-53 -128,-122 -148,-122 -11,0 -10,6 5,25 11,14 23,49 26,82 11,88 23,116 70,166 24,25 50,58 58,72 12,26 47,44 218,110 34,14 34,14 7,15 -15,0 -40,-6 -55,-14 -36,-19 -142,-32 -142,-18 0,6 14,27 31,47 18,20 39,62 50,99 23,77 46,97 134,115 33,7 85,26 115,41 30,16 76,39 103,51 26,13 55,31 65,42 13,15 8,14 -25,-6 -23,-14 -53,-29 -67,-33 -24,-6 -26,-5 -17,17 32,83 78,152 120,183 25,18 56,52 69,75 31,60 27,65 -8,9 -18,-29 -45,-55 -68,-67 -47,-24 -55,-33 -92,-108 -46,-92 -92,-140 -152,-158 -29,-8 -63,-15 -77,-15 -14,0 -39,-7 -54,-15 -43,-22 -45,-5 -21,182 5,41 1,69 -16,124 -23,69 -23,71 -5,123 19,55 17,69 -20,181 -2,6 -4,-2 -4,-17 -1,-15 6,-46 15,-68 15,-37 15,-43 0,-80 -21,-52 -20,-110 1,-177 16,-51 16,-58 0,-121 -9,-37 -17,-97 -17,-134 0,-52 -6,-80 -29,-130 -15,-34 -38,-72 -51,-83 -32,-28 -50,-68 -50,-109 0,-30 -6,-40 -41,-66 -23,-16 -45,-27 -49,-25 -4,3 -16,40 -25,82 -15,68 -22,82 -59,115 -22,21 -44,38 -48,38 -3,0 -11,14 -17,31 -8,25 -7,42 9,90 25,73 25,90 1,137 -16,32 -19,57 -18,162 2,110 5,129 23,155 13,19 24,53 27,90 l 6,60 -13,-51 c -14,-56 -60,-124 -82,-124 -8,0 -28,20 -46,44 -17,25 -50,59 -74,75 -42,30 -64,75 -77,151 -4,22 -4,22 -6,3 z"
         id="path4"
         style="fill:url(#linearGradient25)" />
      <path
         d="m 5148,7338 c -28,-44 -31,-64 -33,-178 -2,-106 0,-118 26,-178 33,-74 34,-91 10,-152 l -18,-44 -19,34 c -10,19 -21,55 -25,80 l -6,45 -2,-46 c 0,-28 7,-65 19,-90 15,-35 20,-66 20,-147 0,-89 -3,-111 -27,-165 -19,-46 -28,-88 -34,-166 -4,-57 -12,-108 -17,-113 -15,-15 -85,54 -132,131 -30,51 -46,92 -59,158 -32,153 -64,196 -175,233 -74,24 -98,47 -123,115 -17,46 -66,95 -96,95 -5,0 5,-10 24,-23 24,-16 41,-41 59,-84 32,-79 60,-108 124,-129 100,-33 138,-81 151,-194 4,-30 11,-71 17,-90 15,-52 82,-155 154,-238 89,-102 88,-105 -36,-103 -30,1 -71,-3 -90,-8 -30,-8 -25,-9 38,-10 122,-2 157,-15 209,-80 52,-65 76,-108 68,-120 -3,-5 -21,7 -40,26 -20,20 -38,33 -41,30 -3,-3 6,-16 19,-29 14,-14 32,-38 40,-55 14,-27 14,-32 -1,-55 -49,-73 -320,-357 -375,-392 -15,-10 -27,-24 -27,-31 0,-8 26,-69 58,-137 80,-167 80,-169 37,-207 -58,-50 -92,-64 -127,-52 -42,15 -48,13 -18,-4 38,-22 86,-18 130,10 44,28 60,31 77,14 14,-14 183,-17 298,-5 118,12 144,0 222,-99 119,-149 122,-154 117,-183 -2,-15 -7,-43 -10,-62 -3,-19 -26,-63 -50,-97 -41,-57 -47,-62 -69,-53 -14,5 -98,43 -187,83 -90,41 -171,77 -180,80 -18,7 -23,32 -20,112 l 1,40 -20,-45 c -12,-25 -40,-65 -64,-90 -23,-25 -62,-74 -86,-110 -24,-36 -65,-90 -92,-120 -27,-30 -54,-63 -59,-75 -5,-11 -30,-33 -56,-50 -25,-16 -62,-52 -81,-80 l -35,-50 40,36 c 21,20 49,42 61,48 44,23 48,16 47,-71 -1,-96 -12,-136 -65,-234 -37,-67 -39,-75 -39,-161 0,-99 3,-93 -78,-159 -18,-14 -40,-40 -48,-58 -9,-17 -33,-48 -53,-69 -34,-36 -36,-42 -42,-125 -4,-48 -9,-103 -13,-122 -5,-28 -4,-26 9,10 8,25 15,63 15,85 0,64 17,108 56,145 20,19 44,51 54,71 20,37 92,95 108,85 5,-3 15,-27 22,-53 7,-27 15,-42 17,-35 3,7 0,27 -6,44 -6,17 -11,83 -11,147 0,116 0,116 36,176 57,93 76,144 84,223 4,41 12,78 17,83 17,17 70,-67 83,-134 20,-105 46,-152 101,-188 57,-36 89,-77 89,-112 0,-21 -9,-28 -59,-46 -67,-24 -76,-33 -100,-96 -25,-65 -13,-144 29,-196 48,-60 62,-104 69,-224 4,-60 13,-120 19,-133 17,-30 24,-28 11,4 -15,40 -21,117 -11,143 13,35 -21,156 -56,200 -56,70 -68,118 -47,187 14,46 49,94 69,94 32,0 87,23 96,40 18,34 -15,95 -81,146 -70,54 -83,76 -102,177 -9,49 -24,92 -41,115 -49,71 -32,121 49,151 77,29 123,27 158,-4 31,-30 32,-33 14,-54 -8,-9 -22,-36 -31,-61 -10,-25 -25,-53 -33,-63 -9,-9 -14,-19 -12,-21 7,-8 44,28 82,82 21,28 40,52 42,52 11,0 61,-26 68,-35 4,-5 12,-28 18,-50 6,-22 16,-47 23,-55 7,-8 18,-38 25,-67 17,-69 -4,-151 -63,-247 -24,-39 -52,-97 -62,-129 -17,-54 -17,-60 -1,-105 20,-54 22,-99 6,-139 -6,-17 -6,-24 0,-18 5,6 16,31 22,57 12,43 11,53 -8,98 -30,70 -13,128 73,252 35,52 64,135 65,190 1,74 32,87 58,26 11,-24 22,-62 26,-84 5,-32 12,-44 33,-53 l 27,-12 -25,20 c -23,18 -25,27 -28,125 -5,115 -2,121 46,87 15,-11 56,-27 92,-36 97,-24 118,-34 141,-71 l 21,-34 -31,-66 c -35,-74 -38,-105 -16,-157 25,-59 19,-127 -15,-192 -38,-72 -38,-80 -1,-29 50,67 61,139 39,244 -11,55 -10,59 20,120 35,68 38,89 21,123 -22,42 -52,66 -103,83 -28,9 -60,25 -72,35 -11,11 -34,19 -52,19 -59,0 -56,7 68,179 25,35 79,99 122,144 42,45 102,114 135,154 65,80 76,87 104,72 20,-10 20,-9 5,20 -9,16 -16,35 -16,40 0,22 -68,122 -120,178 -177,189 -199,224 -201,323 -1,36 -4,56 -6,45 -7,-28 -54,-108 -69,-117 -7,-4 -31,-24 -54,-43 -45,-37 -74,-42 -174,-29 -37,5 -50,12 -59,31 -9,20 -6,28 24,59 19,20 43,40 54,44 l 20,9 h -20 c -11,1 -33,-8 -50,-19 -49,-33 -58,-27 -93,63 -53,135 -53,154 11,224 l 20,22 67,-34 c 37,-19 106,-45 152,-58 l 85,-24 96,41 c 106,46 131,68 199,178 60,96 74,127 81,173 l 5,40 -18,-40 c -30,-67 -97,-123 -162,-137 -43,-9 -62,-9 -86,1 -38,16 -46,35 -31,79 7,20 9,66 7,108 -4,63 -2,79 18,113 12,22 17,38 10,35 -27,-10 -51,-76 -48,-132 3,-56 -30,-172 -50,-172 -18,0 -83,38 -105,62 -12,12 -22,37 -23,53 0,17 -1,39 -2,50 -1,11 4,65 11,120 13,108 33,158 86,217 19,20 41,48 50,62 25,38 23,136 -4,223 -33,105 -26,208 18,277 24,39 31,60 30,95 l -1,46 -8,-48 c -5,-29 -22,-66 -45,-97 l -36,-49 3,-103 c 2,-60 12,-130 23,-168 26,-93 17,-126 -55,-206 -32,-36 -63,-65 -67,-65 -4,0 -11,22 -15,48 -11,71 -36,155 -37,122 -1,-15 5,-44 13,-66 11,-32 12,-66 6,-159 -10,-132 -27,-245 -40,-257 -14,-15 -49,12 -88,71 -72,106 -79,131 -76,277 3,123 5,135 35,199 30,65 32,72 26,157 -5,74 -2,99 14,147 30,83 28,136 -6,202 -23,45 -30,74 -36,160 -7,98 -6,108 16,158 25,55 26,66 3,30 z"
         id="path6"
         sodipodi:nodetypes="ccccccccccsccsccccscccccccccscssscccsccccsscccsccccccccssccccccccsccccccscccccssccsccsccccccccsssccccccccccscsscccccccccccccccccccccccccccccscccccscccccccccccccccccccccccccccccssccscccccccccccccscccccccccccccc"
         style="fill:url(#linearGradient23)" />
      <path
         d="m 7981,7158 c -8,-24 -28,-56 -47,-74 -20,-17 -47,-60 -63,-98 -36,-85 -59,-111 -125,-140 -32,-14 -87,-55 -136,-100 -46,-42 -87,-73 -91,-69 -13,14 -49,156 -49,195 0,21 14,80 30,131 17,52 29,109 29,128 -2,34 -2,34 -6,4 -3,-16 -20,-77 -40,-134 -32,-94 -35,-112 -29,-170 4,-36 12,-84 18,-106 6,-22 12,-96 13,-165 1,-69 5,-164 9,-211 l 9,-85 -58,-112 c -31,-62 -61,-112 -66,-112 -5,0 -11,12 -14,28 -17,77 -48,138 -95,185 -62,62 -90,118 -88,179 0,39 -6,57 -41,108 -50,76 -55,67 -5,-10 32,-50 34,-59 28,-106 -5,-43 -2,-59 21,-104 15,-29 46,-73 69,-99 24,-25 48,-55 53,-66 18,-36 14,-142 -6,-188 -11,-23 -22,-53 -26,-66 -4,-13 -35,-50 -69,-84 l -61,-60 -8,84 c -5,46 -9,116 -10,154 l -1,70 -12,-54 c -8,-35 -9,-62 -3,-78 13,-35 11,-93 -5,-144 -8,-24 -17,-56 -20,-70 -3,-14 -18,-39 -33,-54 -31,-31 -199,-143 -283,-188 l -55,-29 50,6 c 28,3 65,8 83,12 l 32,6 v -181 c -1,-99 -5,-183 -10,-186 -9,-5 -50,32 -50,45 0,4 -22,19 -50,34 -60,33 -65,29 -9,-8 31,-21 49,-45 77,-104 l 36,-77 -1,-156 c -1,-85 -6,-173 -12,-195 -6,-21 -33,-79 -61,-129 -28,-49 -53,-104 -55,-122 -2,-17 -14,-51 -26,-75 -24,-49 -16,-43 29,20 45,64 100,104 132,97 168,-39 205,-64 182,-122 -21,-50 -63,-207 -64,-233 0,-14 8,-47 19,-75 11,-27 18,-59 16,-70 -1,-12 1,-10 8,6 8,21 5,38 -10,77 -22,54 -20,66 21,197 16,50 69,134 85,135 6,0 20,-11 30,-24 14,-17 26,-23 44,-19 34,6 55,-20 84,-103 42,-119 31,-195 -42,-278 -27,-31 -45,-66 -61,-121 -28,-97 -23,-110 7,-17 26,80 43,107 92,150 22,19 41,48 48,73 12,38 14,41 23,23 46,-88 98,-160 143,-199 82,-70 96,-144 41,-224 -43,-62 -43,-84 -1,-128 37,-38 39,-27 2,14 -24,27 -18,60 20,110 31,41 43,126 23,173 -7,16 -35,47 -64,68 -43,33 -58,54 -98,138 -49,101 -74,214 -66,295 4,50 28,43 42,-12 11,-40 50,-109 62,-109 3,0 -7,20 -21,43 -34,60 -34,120 0,143 18,12 24,22 20,35 -8,23 18,25 55,5 17,-10 30,-11 42,-5 22,12 24,31 2,22 -9,-3 -24,4 -36,17 l -21,23 63,121 c 35,66 83,149 107,183 24,34 46,69 50,79 8,22 -210,-205 -251,-261 -14,-19 -15,-19 -72,-1 -33,10 -79,29 -104,41 -25,12 -76,33 -113,45 l -68,23 6,101 7,101 96,95 c 120,118 394,369 444,407 21,15 36,31 35,34 -1,4 -26,34 -55,67 -92,104 -282,386 -282,418 0,9 21,39 46,67 25,28 57,71 71,96 14,25 50,83 80,129 30,46 63,107 73,135 10,29 21,61 26,71 5,13 4,17 -4,13 -6,-4 -18,-29 -27,-56 -8,-26 -27,-59 -40,-71 l -25,-23 v 47 c 0,26 -7,61 -16,79 -14,27 -15,38 -4,79 7,28 9,68 5,96 -5,39 -3,51 10,62 9,8 37,40 62,72 54,70 113,106 150,89 13,-6 50,-11 82,-11 45,0 64,5 91,25 37,27 31,33 -10,10 -26,-15 -96,-20 -124,-9 -17,7 -22,34 -6,34 5,0 24,23 42,50 22,34 50,61 85,80 66,38 78,56 14,21 -27,-14 -52,-23 -56,-20 -12,13 8,61 46,107 22,26 44,64 50,86 14,52 5,56 -10,4 z M 7314,5467 c 28,-39 68,-96 90,-126 l 39,-55 -56,-52 c -59,-55 -216,-189 -249,-213 -19,-14 -20,-13 -14,35 3,27 8,166 11,309 7,249 8,261 28,277 20,16 22,14 62,-43 22,-33 62,-92 89,-132 z"
         id="path7"
         style="fill:url(#linearGradient27)" />
      <path
         d="m 4100,6793 c 0,-5 11,-20 25,-33 14,-13 33,-49 42,-80 8,-30 24,-72 34,-92 21,-42 25,-127 9,-175 -6,-17 -12,-43 -14,-59 -2,-16 -4,-33 -5,-38 -2,-19 -51,38 -62,73 -16,51 -44,94 -71,110 -21,12 -20,10 4,-16 15,-16 36,-54 46,-85 10,-30 41,-91 69,-134 108,-170 163,-278 163,-320 0,-54 -24,-121 -60,-164 l -29,-35 -11,30 c -6,16 -22,43 -34,60 -13,16 -25,37 -29,45 -5,13 -6,13 -6,-1 -1,-8 10,-30 24,-49 38,-52 34,-104 -15,-194 -49,-89 -50,-104 -5,-51 l 34,40 42,-42 c 39,-38 43,-48 49,-105 3,-35 6,-230 5,-434 l -1,-371 -87,-88 -86,-89 -43,31 c -47,33 -164,93 -171,87 -6,-6 1,925 8,981 3,28 15,65 26,83 26,45 24,47 -15,23 -56,-35 -52,9 8,77 25,29 13,28 -27,-2 -49,-36 -54,-37 -71,-20 -27,27 -19,65 23,109 21,22 42,51 45,65 l 7,25 -15,-26 c -14,-25 -77,-79 -92,-79 -10,0 1,183 22,342 l 17,136 -35,64 c -26,45 -38,81 -42,128 -13,120 -25,141 -19,35 4,-82 10,-111 34,-164 16,-35 29,-74 29,-87 0,-24 -22,-165 -41,-262 l -11,-54 -25,54 c -14,29 -29,64 -33,78 -6,19 -8,21 -9,6 -1,-11 11,-44 25,-74 20,-42 24,-63 19,-91 -9,-52 -51,-118 -85,-136 -16,-8 -49,-33 -72,-55 -24,-22 -59,-50 -79,-62 -21,-11 -42,-31 -48,-44 -7,-16 -22,-25 -48,-29 -60,-10 -62,-13 -9,-14 27,-1 73,7 103,16 l 54,17 39,-40 c 29,-28 43,-52 51,-89 5,-27 13,-189 16,-360 6,-315 -3,-446 -33,-505 -18,-37 -94,-106 -129,-118 l -30,-10 40,-2 c 22,-1 49,-2 60,-1 25,2 126,-72 143,-105 11,-21 11,-29 -1,-52 -34,-66 -86,-162 -120,-224 -34,-60 -38,-75 -42,-155 -3,-71 -3,-78 4,-33 16,110 22,128 72,200 28,41 59,90 69,109 27,54 63,83 96,79 25,-3 32,-11 56,-73 31,-80 36,-155 12,-200 -9,-16 -22,-66 -29,-110 -12,-72 -11,-85 6,-140 24,-77 24,-81 -6,-113 -14,-15 -53,-71 -86,-124 -41,-65 -70,-100 -89,-108 -44,-18 -180,-181 -180,-215 0,-5 10,6 23,26 40,66 131,157 172,173 28,11 51,32 75,67 36,53 93,109 111,109 18,0 52,-92 59,-163 6,-53 14,-75 33,-95 63,-68 84,-145 61,-221 -20,-66 -16,-74 7,-16 16,38 19,64 15,108 -6,63 -15,84 -58,138 -23,29 -30,50 -38,117 -5,45 -14,91 -21,103 -7,14 -9,45 -5,88 5,47 2,81 -9,116 -21,71 -19,125 9,203 14,37 36,98 49,135 46,126 126,172 127,72 0,-17 10,-48 22,-70 17,-30 24,-63 29,-130 l 5,-90 2,95 c 1,75 -3,103 -18,135 -13,26 -19,62 -20,103 v 64 l 67,69 c 36,38 74,69 82,69 38,0 88,-58 120,-140 35,-87 35,-121 0,-159 -35,-38 -5,-22 41,22 25,23 54,61 64,84 10,24 27,45 37,48 11,4 19,15 19,26 0,10 5,19 11,19 6,0 43,23 82,50 46,32 64,50 51,50 -19,0 -109,93 -131,135 -23,44 -35,163 -31,305 4,160 15,196 78,255 36,34 60,75 59,102 0,10 -7,1 -15,-19 -10,-23 -30,-45 -52,-58 -33,-20 -37,-20 -48,-5 -15,20 -12,151 6,315 14,128 23,160 57,200 21,26 22,30 9,61 -16,42 -13,54 30,99 53,56 67,114 41,174 -12,28 -13,27 -13,-25 0,-64 -24,-114 -71,-144 -17,-11 -42,-44 -57,-73 -23,-46 -28,-51 -45,-42 -27,14 -54,55 -85,124 -31,70 -32,95 -6,164 23,59 25,95 9,141 -10,28 -8,35 15,66 48,62 59,100 46,161 -6,30 -8,64 -4,76 3,13 3,19 -2,15 -5,-5 -9,-44 -9,-86 0,-72 -3,-82 -38,-140 -38,-61 -39,-63 -27,-110 10,-44 9,-53 -10,-90 -11,-23 -25,-39 -31,-36 -5,4 -23,34 -41,68 -17,34 -44,81 -59,104 -39,57 -46,117 -24,199 20,76 16,134 -16,196 -11,22 -27,62 -35,87 -12,41 -84,129 -84,104 z"
         id="path10"
         sodipodi:nodetypes="sscscsccccccscccccccccccccccccccccccsscccsccccccsccccccccccccccccccccccccccccccccccccccscccscccccccccccccccccccccscscccsscsccccccccccccsccccccccccscccccccccs"
         style="fill:url(#linearGradient21)" />
    </g>
  </g>
</svg>
